<svg xmlns="http://www.w3.org/2000/svg" viewBox="0 0 1440 320"><path fill="#003B73" fill-opacity="6" d="M0,256L8,218.7C16,181,32,107,48,90.7C64,75,80,117,96,117.3C112,117,128,75,144,53.3C160,32,176,32,192,42.7C208,53,224,75,240,90.7C256,107,272,117,288,117.3C304,117,320,107,336,117.3C352,128,368,160,384,160C400,160,416,128,432,138.7C448,149,464,203,480,218.7C496,235,512,213,528,213.3C544,213,560,235,576,229.3C592,224,608,192,624,197.3C640,203,656,245,672,256C688,267,704,245,720,234.7C736,224,752,224,768,192C784,160,800,96,816,101.3C832,107,848,181,864,197.3C880,213,896,171,912,149.3C928,128,944,128,960,117.3C976,107,992,85,1008,74.7C1024,64,1040,64,1056,64C1072,64,1088,64,1104,85.3C1120,107,1136,149,1152,154.7C1168,160,1184,128,1200,117.3C1216,107,1232,117,1248,144C1264,171,1280,213,1296,208C1312,203,1328,149,1344,144C1360,139,1376,181,1392,170.7C1408,160,1424,96,1432,64L1440,32L1440,320L1432,320C1424,320,1408,320,1392,320C1376,320,1360,320,1344,320C1328,320,1312,320,1296,320C1280,320,1264,320,1248,320C1232,320,1216,320,1200,320C1184,320,1168,320,1152,320C1136,320,1120,320,1104,320C1088,320,1072,320,1056,320C1040,320,1024,320,1008,320C992,320,976,320,960,320C944,320,928,320,912,320C896,320,880,320,864,320C848,320,832,320,816,320C800,320,784,320,768,320C752,320,736,320,720,320C704,320,688,320,672,320C656,320,640,320,624,320C608,320,592,320,576,320C560,320,544,320,528,320C512,320,496,320,480,320C464,320,448,320,432,320C416,320,400,320,384,320C368,320,352,320,336,320C320,320,304,320,288,320C272,320,256,320,240,320C224,320,208,320,192,320C176,320,160,320,144,320C128,320,112,320,96,320C80,320,64,320,48,320C32,320,16,320,8,320L0,320Z"></path></svg>